# AST/ASF file generated using VICON BodyLanguage
# -----------------------------------------------
:version 1.10
:name VICON
:units
  mass 1.0
  length 0.45
  angle deg
:documentation
   .ast/.asf automatically generated from VICON data using
   VICON BodyBuilder and BodyLanguage model FoxedUp or BRILLIANT.MOD
:root
   order TX TY TZ RX RY RZ
   axis XYZ
   position 0 0 0  
   orientation 0 0 0 
:bonedata
  begin
     id 1 
     name lhipjoint
     direction 0.630082 -0.636569 0.44472 
     length 2.82754 
     axis 0 0 0  XYZ
  end
  begin
     id 2 
     name lfemur
     direction 0.34202 -0.939693 0  
     length 7.26371  
     axis 0 0 20  XYZ
    dof rx ry rz
    limits (-160.0 20.0)
           (-70.0 70.0)
           (-60.0 70.0)
  end
  begin
     id 3 
     name ltibia
     direction 0.34202 -0.939693 0   
     length 7.88616   
     axis 0 0 20   XYZ
    dof rx
    limits (-10.0 170.0)
  end
  begin
     id 4 
     name lfoot
     direction 0.0603448 -0.165796 0.984312   
     length 1.77861   
     axis -90 7.62852e-016 20   XYZ
    dof rx rz
    limits (-45.0 90.0)
           (-70.0 20.0)
  end
  begin
     id 5 
     name ltoes
     direction 1.53577e-011 -4.21876e-011 1   
     length 0.902235   
     axis -90 7.62852e-016 20   XYZ
    dof rx
    limits (-90.0 20.0)
  end
  begin
     id 6 
     name rhipjoint
     direction -0.656778 -0.61817 0.431866   
     length 2.9117  
     axis 0 0 0  XYZ 
  end
  begin
     id 7 
     name rfemur
     direction -0.34202 -0.939693 0   
     length 6.81603   
     axis 0 0 -20   XYZ
    dof rx ry rz
    limits (-160.0 20.0)
           (-70.0 70.0)
           (-70.0 60.0)
  end
  begin
     id 8 
     name rtibia
     direction -0.34202 -0.939693 0   
     length 8.05997   
     axis 0 0 -20   XYZ
    dof rx
    limits (-10.0 170.0)
 end
 begin
     id 9 
     name rfoot
     direction -0.0862404 -0.236944 0.967688   
     length 1.84899  
     axis -90 -7.62852e-016 -20   XYZ
    dof rx rz
    limits (-45.0 90.0)
           (-20.0 70.0)
  end
  begin
     id 10 
     name rtoes
     direction -1.53561e-011 -4.21798e-011 1   
     length 0.931579   
     axis -90 -7.62852e-016 -20   XYZ
    dof rx
    limits (-90.0 20.0)
  end
  begin
     id 11 
     name lowerback
     direction -0.0110203 0.991769 -0.127564   
     length 2.05686   
     axis 0 0 0   XYZ
    dof rx ry rz
    limits (-20.0 45.0)
           (-30.0 30.0)
           (-30.0 30.0)
  end
  begin
     id 12 
     name upperback
     direction 0.0109719 0.99993 -0.00432479   
     length 2.06234   
     axis 0 0 0   XYZ
    dof rx ry rz
    limits (-20.0 45.0)
           (-30.0 30.0)
           (-30.0 30.0)
  end
  begin
     id 13 
     name thorax
     direction 0.0173308 0.998351 0.0547306   
     length 2.09856   
     axis 0 0 0   XYZ
    dof rx ry rz
    limits (-20.0 45.0)
           (-30.0 30.0)
           (-30.0 30.0)
  end
  begin
     id 14 
     name lowerneck
     direction -0.0311736 0.989033 0.144366   
     length 1.98151   
     axis 0 0 0   XYZ
    dof rx ry rz
    limits (-20.0 45.0)
           (-30.0 30.0)
           (-30.0 30.0)
  end
  begin
     id 15 
     name upperneck
     direction 0.0421057 0.975772 -0.214698   
     length 2.01457   
     axis 0 0 0   XYZ
    dof rx ry rz
    limits (-20.0 45.0)
           (-30.0 30.0)
           (-30.0 30.0)
  end
  begin
     id 16
     name head
     direction 0.0136911 0.995958 -0.0887718  
     length 2.03562  
     axis 0 0 0   XYZ
    dof rx ry rz
    limits (-20.0 45.0)
           (-30.0 30.0)
           (-30.0 30.0)
  end
  begin
     id 17 
     name lclavicle
     direction 0.915335 0.396201 0.0720134  
     length 4.16217  
     axis 0 0 0   XYZ
    dof ry rz
    limits (-20.0 10.0)
           (0.0 20.0)
  end
  begin
     id 18 
     name lhumerus
     direction 1 -4.48965e-011 6.383e-018   
     length 4.93042   
     axis -180 -30 -90   XYZ
    dof rx ry rz
    limits (-60.0 90.0)
           (-90.0 90.0)
           (-90.0 90.0)
  end
  begin
     id 19
     name lradius
     direction 1 -4.48972e-011 8.8689e-027   
     length 3.68177   
     axis -180 -30 -90   XYZ
    dof rx
    limits (-10.0 170.0)
  end
  begin
     id 20
     name lwrist
     direction 1 -4.48953e-011 1.17971e-026   
     length 1.84089   
     axis -7.69454e-015 90 90   XYZ
    dof ry
    limits (-180.0 0.0)
 end
  begin
     id 21 
     name lhand
     direction 1 -4.49027e-011 2.35802e-026   
     length 0.721479   
     axis -1.50533e-014 90 90   XYZ
    dof rx rz
    limits (-90.0 90.0)
           (-45.0 45.0)
  end
  begin
     id 22 
     name lfingers
     direction 1 -4.48915e-011 4.72027e-026   
     length 0.581675   
     axis -3.01059e-014 90 90   XYZ
    dof rx
    limits (0.0 90.0)
  end
  begin
     id 23
     name lthumb
     direction 0.707107 -6.34948e-011 0.707107   
     length 0.835172   
     axis -90 45 -5.12164e-014   XYZ
    dof rx rz
    limits (-45.0 45.0)
           (-45.0 45.0)
  end
  begin
     id 24 
     name rclavicle
     direction -0.882781 0.469197 0.0234974   
     length 3.95647  
     axis 0 0 0   XYZ 
    dof ry rz
    limits (-10.0 20.0)
           (-20.0 0.0)
  end
  begin
     id 25 
     name rhumerus
     direction -1 -4.48965e-011 -1.54906e-018  
     length 5.07905   
     axis -180 30 90   XYZ
    dof rx ry rz
    limits (-90.0 60.0)
           (-90.0 90.0)
           (-90.0 90.0)
  end
  begin
     id 26 
     name rradius
     direction -1 -4.48972e-011 5.47489e-027   
     length 3.54394   
     axis -180 30 90   XYZ
    dof rx
    limits (-10.0 170.0)
  end
  begin
     id 27 
     name rwrist
     direction -1 -4.48955e-011 1.17969e-026   
     length 1.77197   
     axis -7.69454e-015 -90 -90   XYZ
    dof ry
    limits (-180.0 0.0)
  end
  begin
     id 28
     name rhand
     direction -1 -4.48982e-011 2.35888e-026   
     length 0.681156   
     axis -1.50533e-014 -90 -90   XYZ
    dof rx rz
    limits (-90.0 90.0)
           (-45.0 45.0)
  end
  begin
     id 29
     name rfingers
     direction -1 -4.48955e-011 4.71877e-026   
     length 0.549165   
     axis -3.01059e-014 -90 -90   XYZ
    dof rx
    limits (0.0 90.0)
  end
  begin
     id 30
     name rthumb
     direction -0.707107 -6.3491e-011 0.707107   
     length 0.788495   
     axis -90 -45 5.12164e-014   XYZ
    dof rx rz
    limits (-45.0 45.0)
           (-45.0 45.0)
  end
:hierarchy
  begin
    root lhipjoint rhipjoint lowerback
    lhipjoint lfemur
    lfemur ltibia
    ltibia lfoot
    lfoot ltoes
    rhipjoint rfemur
    rfemur rtibia
    rtibia rfoot
    rfoot rtoes
    lowerback upperback
    upperback thorax
    thorax lowerneck lclavicle rclavicle
    lowerneck upperneck
    upperneck head
    lclavicle lhumerus
    lhumerus lradius
    lradius lwrist
    lwrist lhand lthumb
    lhand lfingers
    rclavicle rhumerus
    rhumerus rradius
    rradius rwrist
    rwrist rhand rthumb
    rhand rfingers
  end

#!OML:ASF H:\Bending\Project 1\Capture day 1\Session 1\Subject.ASF
:FULLY-SPECIFIED
:DEGREES
16
root -10.2104 18.0247 -16.756 -157.233 86.4548 -161.472
lowerback 8.21487 0.169147 0.551086
upperback -1.86092 0.437577 2.10381
thorax -6.57874 0.246259 1.83304
lowerneck -24.1118 -3.6404 -6.08904
upperneck 32.1161 -2.5155 0.761716
head 15.4599 -1.51597 0.910704
rclavicle -1.93815e-015 -6.75868e-015
rhumerus -39.4179 -9.10712 -70.4741
rradius 36.9159
rwrist 5.66758
rhand -21.0596 -20.9176
rfingers 7.12502
rthumb 5.3168 -50.8309
lclavicle -1.93815e-015 -6.75868e-015
lhumerus -36.6691 11.6067 81.5935
lradius 37.59
lwrist 22.7543
lhand -32.5754 9.51403
lfingers 7.12502
lthumb -5.80429 39.4145
rfemur 4.01032 -8.75034 14.2347
rtibia 0
rfoot -7.92784 -16.5565
rtoes 3.49249
lfemur -11.6229 -13.6914 -12.8303
ltibia 22.4026
lfoot -20.1241 14.0592
ltoes -32.3993
17
root -10.208 18.0283 -16.7714 -156.968 86.5778 -161.251
lowerback 8.19209 0.146193 0.462509
upperback -1.8757 0.399167 2.1302
thorax -6.58113 0.231556 1.91605
lowerneck -24.1563 -3.62811 -6.09209
upperneck 32.1739 -2.48486 0.745141
head 15.4958 -1.5063 0.910173
rclavicle -3.97569e-015 -6.36111e-015
rhumerus -39.5234 -9.72135 -70.6469
rradius 35.9606
rwrist 6.0523
rhand -21.1406 -21.1787
rfingers 7.12502
rthumb 5.23856 -51.094
lclavicle -3.97569e-015 -6.36111e-015
lhumerus -36.897 12.2568 81.4366
lradius 36.0332
lwrist 22.0557
lhand -32.4884 9.47965
lfingers 7.12502
lthumb -5.7203 39.3824
rfemur 3.98268 -8.63723 14.1329
rtibia -3.97569e-015
rfoot -8.21953 -16.4486
rtoes 5.00297
lfemur -11.5948 -13.9532 -12.9209
ltibia 22.3707
lfoot -20.2932 14.374
ltoes -32.1881
18
root -10.2041 18.032 -16.7857 -156.725 86.7154 -161.054
lowerback 8.14402 0.135642 0.400158
upperback -1.88064 0.378207 2.13942
thorax -6.55869 0.223822 1.96366
lowerneck -24.2027 -3.62651 -6.08691
upperneck 32.2129 -2.47607 0.731738
head 15.524 -1.50446 0.90496
rclavicle 3.57812e-015 8.74653e-015
rhumerus -39.649 -10.4475 -70.6614
rradius 34.9661
rwrist 6.80657
rhand -20.9133 -21.1275
rfingers 7.12502
rthumb 5.45804 -51.0372
lclavicle 3.57812e-015 8.74653e-015
lhumerus -37.1016 12.9137 81.2243
lradius 34.3896
lwrist 21.2295
lhand -32.4166 9.4438
lfingers 7.12502
lthumb -5.65097 39.3485
rfemur 3.95083 -8.51179 14.0299
rtibia 4.77083e-015
rfoot -8.44464 -16.3637
rtoes 6.17776
lfemur -11.5504 -14.1976 -13.0198
ltibia 22.3221
lfoot -20.4625 14.6827
ltoes -31.9373
19
root -10.1998 18.0353 -16.7979 -156.373 86.8413 -160.758
lowerback 8.07424 0.139661 0.376433
upperback -1.88525 0.379391 2.13309
thorax -6.52374 0.225014 1.97002
lowerneck -24.24 -3.63913 -6.0734
upperneck 32.235 -2.49774 0.729302
head 15.5434 -1.51266 0.896768
rclavicle -3.08116e-015 -2.18663e-014
rhumerus -39.832 -11.1663 -70.5669
rradius 34.0009
rwrist 7.68772
rhand -20.497 -20.8663
rfingers 7.12502
rthumb 5.86 -50.7653
lclavicle -3.08116e-015 -2.18663e-014
lhumerus -37.2886 13.5254 80.9759
lradius 32.6998
lwrist 20.3374
lhand -32.3881 9.40772
lfingers 7.12502
lthumb -5.62346 39.3131
rfemur 3.89913 -8.39656 13.9535
rtibia -1.43125e-014
rfoot -8.5769 -16.3128
rtoes 6.83995
lfemur -11.5245 -14.4047 -13.0984
ltibia 22.2734
lfoot -20.6182 14.9479
ltoes -31.6715
20
root -10.1962 18.0378 -16.8071 -155.901 86.9396 -160.357
lowerback 7.99365 0.15497 0.382987
upperback -1.89609 0.398197 2.11725
thorax -6.48946 0.233497 1.94697
lowerneck -24.2573 -3.66227 -6.04888
upperneck 32.2422 -2.54547 0.736854
head 15.5522 -1.52871 0.885804
rclavicle -3.42904e-015 2.78299e-015
rhumerus -40.0762 -11.7538 -70.4331
rradius 33.103
rwrist 8.45869
rhand -20.0353 -20.5322
rfingers 7.12502
rthumb 6.30569 -50.4184
lclavicle -3.42904e-015 2.78299e-015
lhumerus -37.4716 14.0772 80.7036
lradius 31.0094
lwrist 19.4235
lhand -32.4115 9.37051
lfingers 7.12502
lthumb -5.64602 39.2753
rfemur 3.8229 -8.30629 13.9139
rtibia 9.54166e-015
rfoot -8.62443 -16.2918
rtoes 7.00786
lfemur -11.5342 -14.5841 -13.1435
ltibia 22.2352
lfoot -20.7535 15.1692
ltoes -31.4318
21
root -10.1939 18.0394 -16.8129 -155.428 87.0081 -159.963
lowerback 7.91611 0.17247 0.396378
upperback -1.91535 0.420775 2.09948
thorax -6.46589 0.243615 1.91766
lowerneck -24.2503 -3.6867 -6.01031
upperneck 32.2411 -2.60426 0.748155
head 15.5516 -1.54683 0.872084
rclavicle -1.07344e-014 1.98785e-015
rhumerus -40.3547 -12.1389 -70.3208
rradius 32.2756
rwrist 8.99093
rhand -19.6258 -20.236
rfingers 7.12502
rthumb 6.70107 -50.11
lclavicle -1.07344e-014 1.98785e-015
lhumerus -37.6695 14.603 80.4008
lradius 29.3597
lwrist 18.4919
lhand -32.4747 9.32533
lfingers 7.12502
lthumb -5.70706 39.2285
rfemur 3.72765 -8.24447 13.9039
rtibia -9.54166e-015
rfoot -8.61691 -16.2894
rtoes 6.83727
lfemur -11.5777 -14.7629 -13.1589
ltibia 22.2115
lfoot -20.8699 15.3727
ltoes -31.2516
22
root -10.1933 18.0398 -16.8155 -155.09 87.0554 -159.703
lowerback 7.85295 0.180221 0.393065
upperback -1.94106 0.429273 2.086
thorax -6.45707 0.247641 1.90428
lowerneck -24.2267 -3.70267 -5.95759
upperneck 32.2447 -2.65623 0.757215
head 15.5488 -1.56045 0.856689
rclavicle 5.96354e-016 1.15295e-014
rhumerus -40.6273 -12.3291 -70.2582
rradius 31.5013
rwrist 9.30186
rhand -19.2859 -20.0229
rfingers 7.12502
rthumb 7.0292 -49.8862
lclavicle 5.96354e-016 1.15295e-014
lhumerus -37.9008 15.1695 80.0414
lradius 27.7829
lwrist 17.506
lhand -32.5534 9.26098
lfingers 7.12502
lthumb -5.78302 39.1621
rfemur 3.62443 -8.20483 13.9075
rtibia -1.59028e-014
rfoot -8.58757 -16.2949
rtoes 6.5333
lfemur -11.6409 -14.9676 -13.1577
ltibia 22.2009
lfoot -20.9766 15.5894
ltoes -31.1292
23
root -10.1941 18.0395 -16.8153 -154.906 87.0929 -159.589
lowerback 7.80923 0.169001 0.365048
upperback -1.96874 0.410743 2.0798
thorax -6.46088 0.239558 1.91614
lowerneck -24.2037 -3.70582 -5.89625
upperneck 32.2696 -2.69019 0.762556
head 15.5551 -1.56586 0.842085
rclavicle -8.64713e-015 -3.10104e-014
rhumerus -40.8613 -12.392 -70.2354
rradius 30.7619
rwrist 9.5127
rhand -18.9713 -19.8753
rfingers 7.12502
rthumb 7.33284 -49.7282
lclavicle -8.64713e-015 -3.10104e-014
lhumerus -38.1767 15.8338 79.597
lradius 26.3016
lwrist 16.4146
lhand -32.6227 9.17015
lfingers 7.12502
lthumb -5.84992 39.0694
rfemur 3.52417 -8.17636 13.9138
rtibia 1.51076e-014
rfoot -8.55699 -16.3043
rtoes 6.25964
lfemur -11.7069 -15.2115 -13.15
ltibia 22.2001
lfoot -21.087 15.8369
ltoes -31.0234
24
root -10.1958 18.0388 -16.8132 -154.705 87.1307 -159.447
lowerback 7.78105 0.138811 0.325654
upperback -1.99414 0.366346 2.07983
thorax -6.47049 0.219367 1.9444
lowerneck -24.2 -3.70053 -5.83763
upperneck 32.3274 -2.70812 0.76895
head 15.5809 -1.56464 0.831609
rclavicle -1.54058e-015 -5.56597e-015
rhumerus -41.0464 -12.4145 -70.2179
rradius 30.0545
rwrist 9.76439
rhand -18.6284 -19.7472
rfingers 7.12502
rthumb 7.66387 -49.5884
lclavicle -1.54058e-015 -5.56597e-015
lhumerus -38.4948 16.5961 79.0623
lradius 24.934
lwrist 15.1915
lhand -32.6656 9.05807
lfingers 7.12502
lthumb -5.89141 38.9562
rfemur 3.43012 -8.14592 13.9242
rtibia -7.15625e-015
rfoot -8.52624 -16.3194
rtoes 6.08309
lfemur -11.7666 -15.4872 -13.1352
ltibia 22.2078
lfoot -21.2141 16.1121
ltoes -30.8726
25
root -10.197 18.0382 -16.8086 -154.195 87.1738 -158.986
lowerback 7.75506 0.101165 0.287266
upperback -2.01231 0.312398 2.08545
thorax -6.47335 0.19454 1.97914
lowerneck -24.2273 -3.69863 -5.79529
upperneck 32.4183 -2.72415 0.784088
head 15.63 -1.56333 0.827777
rclavicle 2.68359e-015 5.56597e-015
rhumerus -41.1965 -12.4638 -70.1664
rradius 29.3952
rwrist 10.1422
rhand -18.2424 -19.6037
rfingers 7.12502
rthumb 8.03643 -49.4309
lclavicle 2.68359e-015 5.56597e-015
lhumerus -38.8368 17.3813 78.4733
lradius 23.6974
lwrist 13.8616
lhand -32.6743 8.94257
lfingers 7.12502
lthumb -5.89972 38.8404
rfemur 3.34768 -8.1027 13.9542
rtibia -7.15625e-015
rfoot -8.49556 -16.3411
rtoes 6.01711
lfemur -11.8139 -15.757 -13.1008
ltibia 22.2253
lfoot -21.3612 16.3827
ltoes -30.6517
26
root -10.1971 18.0379 -16.8017 -153.168 87.2171 -157.996
lowerback 7.72653 0.0711334 0.277076
upperback -2.02076 0.271404 2.09171
thorax -6.4647 0.174937 1.99682
lowerneck -24.2833 -3.71316 -5.77899
upperneck 32.5284 -2.75659 0.81386
head 15.6965 -1.56995 0.830965
rclavicle 3.72721e-015 3.97569e-015
rhumerus -41.3407 -12.5733 -70.0513
rradius 28.8103
rwrist 10.6493
rhand -17.8555 -19.4382
rfingers 7.12502
rthumb 8.40976 -49.2507
lclavicle 3.72721e-015 3.97569e-015
lhumerus -39.1715 18.0601 77.9053
lradius 22.6094
lwrist 12.5025
lhand -32.6485 8.84486
lfingers 7.12502
lthumb -5.87489 38.7434
rfemur 3.28077 -8.0465 14.0168
rtibia -7.95139e-015
rfoot -8.45719 -16.369
rtoes 5.996
lfemur -11.8473 -15.993 -13.0369
ltibia 22.2541
lfoot -21.521 16.6226
ltoes -30.3821
